<svg xmlns="http://www.w3.org/2000/svg" version="1.1" xmlns:xlink="http://www.w3.org/1999/xlink" xmlns:svgjs="http://svgjs.com/svgjs" width="2560" height="1440" preserveAspectRatio="none" viewBox="0 0 2560 1440"><g mask="url(&quot;#SvgjsMask1117&quot;)" fill="none"><rect width="2560" height="1440" x="0" y="0" fill="url(#SvgjsLinearGradient1118)"></rect><path d="M2688 1440L0 1440 L0 1215.44Q39.34 1126.78, 128 1166.11Q251 1075.78, 341.3333333333333 1198.78Q410.36 1139.8, 469.3333333333333 1208.83Q551.08 1077.24, 682.6666666666666 1158.98Q754.42 1102.74, 810.6666666666666 1174.49Q926.66 1077.15, 1024 1193.15Q1152.97 1108.79, 1237.3333333333333 1237.76Q1309.53 1096.62, 1450.6666666666665 1168.82Q1520.83 1110.98, 1578.6666666666665 1181.14Q1718.15 1107.29, 1791.9999999999998 1246.77Q1877.42 1118.86, 2005.333333333333 1204.28Q2104.54 1090.15, 2218.6666666666665 1189.36Q2310 1152.69, 2346.6666666666665 1244.03Q2402.35 1171.72, 2474.6666666666665 1227.4Q2544.67 1084.07, 2688 1154.08z" fill="rgba(5, 2, 6, 1)"></path><path d="M2645.333333333333 1440L0 1440 L0 1259.31Q63.62 1194.93, 128 1258.56Q252.63 1169.85, 341.3333333333333 1294.48Q396.25 1221.39, 469.3333333333333 1276.31Q527.88 1206.86, 597.3333333333333 1265.4Q685.24 1225.31, 725.3333333333333 1313.22Q788.08 1162.64, 938.6666666666665 1225.39Q1070.24 1143.63, 1151.9999999999998 1275.2Q1199.23 1194.43, 1279.9999999999998 1241.66Q1394.66 1142.98, 1493.333333333333 1257.64Q1581.48 1217.79, 1621.333333333333 1305.94Q1695.62 1166.89, 1834.6666666666663 1241.18Q1913.47 1191.98, 1962.6666666666663 1270.78Q2076.2 1170.98, 2175.9999999999995 1284.51Q2221.42 1201.93, 2303.9999999999995 1247.36Q2375.24 1190.61, 2431.9999999999995 1261.85Q2561.03 1177.55, 2645.333333333333 1306.58z" fill="rgba(59, 59, 59, 1)"></path><path d="M2688 1440L0 1440 L0 1327.33Q99.1 1213.09, 213.33333333333331 1312.19Q346.53 1232.05, 426.66666666666663 1365.25Q483.6 1294.18, 554.6666666666666 1351.12Q596.66 1265.11, 682.6666666666666 1307.11Q783.86 1194.97, 896 1296.17Q1005.93 1278.11, 1024 1388.04Q1047.13 1283.17, 1152 1306.31Q1235.08 1261.38, 1280 1344.46Q1333.69 1270.15, 1408 1323.85Q1535.84 1238.35, 1621.3333333333333 1366.19Q1696.25 1227.77, 1834.6666666666665 1302.69Q1963.07 1217.76, 2047.9999999999998 1346.17Q2165.03 1249.87, 2261.333333333333 1366.9Q2340.42 1232.66, 2474.6666666666665 1311.75Q2619.95 1243.7, 2688 1388.99z" fill="rgba(154, 129, 116, 1)"></path><path d="M2773.3333333333335 1440L0 1440 L0 1441.4Q71.76 1299.83, 213.33333333333331 1371.59Q292.2 1322.46, 341.3333333333333 1401.33Q477.68 1324.35, 554.6666666666666 1460.7Q643.76 1336.46, 768 1425.56Q846.29 1290.51, 981.3333333333333 1368.8Q1131.4 1305.53, 1194.6666666666665 1455.6Q1271.06 1318.66, 1407.9999999999998 1395.05Q1463.61 1322.66, 1535.9999999999998 1378.27Q1643.07 1357.35, 1663.9999999999998 1464.42Q1750.42 1337.51, 1877.333333333333 1423.93Q1961.34 1294.61, 2090.6666666666665 1378.62Q2162.73 1322.68, 2218.6666666666665 1394.75Q2336.04 1298.79, 2432 1416.16Q2508.46 1364.62, 2560 1441.08Q2661.31 1329.05, 2773.3333333333335 1430.36z" fill="white"></path></g><defs><mask id="SvgjsMask1117"><rect width="2560" height="1440" fill="#ffffff"></rect></mask><linearGradient x1="10.94%" y1="-19.44%" x2="89.06%" y2="119.44%" gradientUnits="userSpaceOnUse" id="SvgjsLinearGradient1118"><stop stop-color="rgba(154, 129, 116, 1)" offset="0"></stop><stop stop-color="rgba(59, 59, 59, 1)" offset="1"></stop></linearGradient></defs></svg>